<?xml version="1.0" standalone="no"?><!DOCTYPE svg PUBLIC "-//W3C//DTD SVG 1.1//EN" "http://www.w3.org/Graphics/SVG/1.1/DTD/svg11.dtd"><svg class="icon" width="200px" height="200.00px" viewBox="0 0 1024 1024" version="1.1" xmlns="http://www.w3.org/2000/svg"><path d="M499.712 908.4928c-126.3616-2.2528-232.8576-48.7424-317.2352-141.312-125.952-138.4448-142.7456-342.6304-43.008-501.3504 33.792-53.8624 78.0288-97.4848 131.4816-131.6864 11.4688-7.3728 22.3232-15.7696 33.9968-22.528 7.168-4.096 15.7696-5.5296 23.552-8.6016 32.768-13.5168 66.3552-23.552 101.376-29.4912 52.6336-9.0112 105.0624-7.3728 157.2864 3.2768 62.2592 12.6976 118.784 38.2976 169.5744 76.5952 49.9712 37.4784 89.7024 83.7632 119.3984 138.8544 36.2496 67.3792 51.6096 139.4688 48.9472 215.2448-2.2528 60.416-17.8176 118.1696-45.6704 171.6224-31.5392 60.6208-75.5712 111.616-131.8912 150.9376-71.4752 50.176-151.1424 76.8-239.0016 78.0288-1.6384 0-3.4816 0-5.12 0.2048-1.4336-0.2048-3.072 0.2048-3.6864 0.2048z m-318.2592-423.936c-2.6624 194.7648 160.9728 363.1104 369.2544 359.0144 200.4992-3.8912 355.5328-166.0928 355.1232-359.0144-0.4096-197.632-164.4544-361.2672-369.8688-357.376-197.4272 3.6864-355.9424 164.864-354.5088 357.376z" fill="#FF0000" /><path d="M729.2928 542.72h-132.7104c-4.3008 25.1904-8.3968 50.9952-13.312 76.5952-3.2768 17.6128-6.144 35.6352-12.4928 52.4288-7.3728 19.6608-34.2016 28.672-53.8624 21.2992-11.4688-4.3008-18.2272-13.5168-16.9984-27.2384 1.8432-19.6608 5.12-39.1168 8.3968-58.5728 14.1312-83.1488 28.2624-166.5024 42.5984-249.6512 5.9392-33.9968 36.2496-48.128 61.44-37.2736 11.0592 4.7104 16.7936 13.7216 15.7696 24.9856-2.048 21.2992-5.5296 42.3936-9.0112 63.6928-2.6624 16.7936-5.7344 33.5872-8.8064 50.3808-1.024 5.5296-0.6144 9.8304 6.3488 9.8304H741.376c3.4816-19.6608 6.5536-38.7072 10.0352-57.7536 3.8912-21.2992 6.9632-43.008 12.4928-64.1024 6.144-23.3472 32.768-35.84 55.5008-28.0576 11.0592 3.6864 18.0224 11.0592 17.6128 22.3232-0.4096 15.1552-2.2528 30.5152-4.7104 45.4656-12.4928 75.1616-25.3952 150.3232-38.2976 225.4848-2.6624 15.36-4.9152 30.9248-8.3968 46.08-5.5296 23.7568-21.0944 36.0448-44.032 36.2496-23.3472 0.2048-35.4304-13.1072-32.3584-36.4544 2.2528-16.1792 5.3248-32.3584 7.9872-48.3328 4.3008-21.7088 7.9872-43.6224 12.0832-67.3792zM376.2176 441.344c13.9264-16.384 27.2384-32.1536 40.7552-47.9232 17.8176-20.8896 35.4304-42.1888 53.6576-62.8736 7.7824-8.6016 18.0224-12.9024 29.9008-13.5168 26.2144-1.024 43.008 22.1184 30.72 45.4656-8.192 15.7696-20.8896 29.2864-32.5632 42.8032-30.5152 35.84-62.0544 70.656-91.9552 106.9056-6.144 7.3728-7.5776 19.2512-9.4208 29.2864-6.7584 36.4544-12.4928 73.1136-18.8416 109.7728-5.12 30.3104-21.7088 44.8512-49.3568 43.4176-21.2992-1.024-32.3584-13.9264-29.4912-35.0208 1.8432-14.1312 4.5056-28.2624 6.9632-42.3936 5.5296-31.5392 11.0592-63.0784 16.384-94.6176 0.6144-3.2768-0.6144-7.5776-2.2528-10.6496-22.7328-43.008-45.6704-86.016-68.608-128.8192-8.3968-15.7696-4.5056-40.1408 9.0112-54.0672 12.4928-12.9024 32.3584-16.5888 47.7184-7.5776 5.12 3.072 9.6256 8.6016 12.4928 14.1312 16.7936 32.3584 33.1776 64.9216 49.7664 97.28 1.2288 2.8672 2.8672 4.9152 5.12 8.3968z" fill="#FF0000" /></svg>